# xmcd CD database file
#
# Track frame offsets:
#	182
#	16417
#	52820
#	88482
#
# Disc length: 1480 seconds
#
# Revision: 2
# Processed by: cddbd v1.4PL0 Copyright (c) Steve Scherf et al.
# Submitted via: CDex 1.40Beta8
#
DISCID=2a05c604
DTITLE=omar - Golden Brown
DYEAR=1997
DGENRE=Acid Jazz
TTITLE0=Golden Brown (Radio Edit)
TTITLE1=Wherever (Blacksmith Full R&B Rub)
TTITLE2=Wherever (Blacksmith Hip Hop Mix)
TTITLE3=Wherever (Brass Tooth Well Constructed Mix)
EXTD=YEAR: 1997 ID3G: 74
EXTT0=
EXTT1=
EXTT2=
EXTT3=
PLAYORDER=
